<?xml version="1.0" encoding="UTF-8"?>
<!DOCTYPE svg PUBLIC "-//W3C//DTD SVG 1.1//EN" "http://www.w3.org/Graphics/SVG/1.1/DTD/svg11.dtd">
<svg xmlns="http://www.w3.org/2000/svg" version="1.1" width="550px" height="260px" style="shape-rendering:geometricPrecision; text-rendering:geometricPrecision; image-rendering:optimizeQuality; fill-rule:evenodd; clip-rule:evenodd" xmlns:xlink="http://www.w3.org/1999/xlink">
<g><path style="opacity:0.994" fill="#dea45e" d="M 226.5,56.5 C 219.874,53.858 213.207,51.1914 206.5,48.5C 205.167,47.8333 203.833,47.1667 202.5,46.5C 193.726,38.2691 183.726,31.7691 172.5,27C 155.734,20.3085 138.401,15.8085 120.5,13.5C 159.417,-9.68427 191.251,-2.35094 216,35.5C 220.038,42.2432 223.538,49.2432 226.5,56.5 Z"/></g>
<g><path style="opacity:0.004" fill="#fafff5" d="M 437.5,8.5 C 438.525,8.89657 438.692,9.56323 438,10.5C 437.536,9.90558 437.369,9.23891 437.5,8.5 Z"/></g>
<g><path style="opacity:1" fill="#d68830" d="M 118.5,13.5 C 119.167,13.5 119.833,13.5 120.5,13.5C 138.401,15.8085 155.734,20.3085 172.5,27C 183.726,31.7691 193.726,38.2691 202.5,46.5C 167.242,36.2594 131.242,31.5927 94.5,32.5C 102.136,25.6851 110.136,19.3517 118.5,13.5 Z"/></g>
<g><path style="opacity:1" fill="#dca35e" d="M 118.5,13.5 C 110.136,19.3517 102.136,25.6851 94.5,32.5C 94.1667,32.5 93.8333,32.5 93.5,32.5C 44.5255,28.0732 15.6921,50.0732 7,98.5C 5.83792,104.445 5.33792,110.445 5.5,116.5C 5.16667,116.5 4.83333,116.5 4.5,116.5C -6.75349,64.1365 13.2465,30.9698 64.5,17C 82.3459,13.1792 100.346,12.0125 118.5,13.5 Z"/></g>
<g><path style="opacity:0.092" fill="#fafef5" d="M 307.5,30.5 C 309.801,31.0604 312.134,31.5604 314.5,32C 309.167,32.6667 303.833,32.6667 298.5,32C 301.695,31.8195 304.695,31.3195 307.5,30.5 Z"/></g>
<g><path style="opacity:1" fill="#d68b36" d="M 93.5,32.5 C 67.1633,57.3309 44.33,84.9976 25,115.5C 20.5134,124.136 16.3467,132.803 12.5,141.5C 9.09596,133.561 6.76263,125.228 5.5,116.5C 5.33792,110.445 5.83792,104.445 7,98.5C 15.6921,50.0732 44.5255,28.0732 93.5,32.5 Z"/></g>
<g><path style="opacity:1" fill="#d48125" d="M 93.5,32.5 C 93.8333,32.5 94.1667,32.5 94.5,32.5C 131.242,31.5927 167.242,36.2594 202.5,46.5C 203.833,47.1667 205.167,47.8333 206.5,48.5C 211.797,54.2981 217.297,59.9647 223,65.5C 225.437,68.7196 227.603,72.053 229.5,75.5C 226.136,76.2107 223.803,75.044 222.5,72C 221.167,71.3333 219.833,70.6667 218.5,70C 207.833,69.3333 197.167,69.3333 186.5,70C 181.144,71.8601 178.644,75.6934 179,81.5C 177.333,83.1667 175.667,84.8333 174,86.5C 174.518,82.5753 174.518,78.5753 174,74.5C 173.215,72.714 172.049,71.214 170.5,70C 159.833,69.3333 149.167,69.3333 138.5,70C 134.624,71.043 132.291,73.543 131.5,77.5C 132.798,80.4222 133.798,83.4222 134.5,86.5C 129.867,85.4582 126.701,87.1249 125,91.5C 123.779,97.8128 123.112,104.146 123,110.5C 124.191,113.534 126.358,115.201 129.5,115.5C 129.662,117.527 129.495,119.527 129,121.5C 126.123,122.456 123.456,123.789 121,125.5C 118.688,133.016 117.688,140.682 118,148.5C 119.097,151.265 121.097,152.931 124,153.5C 124.652,156.594 124.318,159.594 123,162.5C 119.284,166.548 115.95,170.882 113,175.5C 112.041,179.421 113.208,182.588 116.5,185C 121.585,186.085 126.752,186.585 132,186.5C 138.472,186.658 144.805,185.991 151,184.5C 152.067,185.191 153.234,185.691 154.5,186C 164.907,186.926 175.241,186.592 185.5,185C 190,180.5 194.5,176 199,171.5C 202.453,176.621 206.286,181.454 210.5,186C 211.448,186.483 212.448,186.649 213.5,186.5C 218.316,187.326 223.316,187.826 228.5,188C 214.673,205.418 197.006,217.085 175.5,223C 144.721,230.288 113.721,231.455 82.5,226.5C 81.0413,226.567 79.7079,226.234 78.5,225.5C 57.5725,213.073 40.7391,196.406 28,175.5C 22.2601,165.354 17.0934,155.02 12.5,144.5C 12.5,143.5 12.5,142.5 12.5,141.5C 16.3467,132.803 20.5134,124.136 25,115.5C 44.33,84.9976 67.1633,57.3309 93.5,32.5 Z"/></g>
<g><path style="opacity:0.051" fill="#fafef5" d="M 294.5,32.5 C 296.379,32.3932 296.712,32.8932 295.5,34C 293.167,34.6667 290.833,34.6667 288.5,34C 290.708,33.8091 292.708,33.3091 294.5,32.5 Z"/></g>
<g><path style="opacity:0.039" fill="#f9fef4" d="M 316.5,33.5 C 315.833,32.1667 315.833,32.1667 316.5,33.5 Z"/></g>
<g><path style="opacity:0.143" fill="#fafef5" d="M 316.5,33.5 C 319.089,34.4194 321.089,36.086 322.5,38.5C 319.911,37.5806 317.911,35.914 316.5,33.5 Z"/></g>
<g><path style="opacity:0.022" fill="#fafff5" d="M 286.5,38.5 C 284.784,38.3713 283.117,38.038 281.5,37.5C 281.783,36.7109 282.283,36.0442 283,35.5C 284.518,36.1634 285.685,37.1634 286.5,38.5 Z"/></g>
<g><path style="opacity:0.022" fill="#fafff5" d="M 281.5,37.5 C 280.5,39.1667 279.167,40.5 277.5,41.5C 277.833,39.1667 279.167,37.8333 281.5,37.5 Z"/></g>
<g><path style="opacity:0.016" fill="#fafff5" d="M 286.5,38.5 C 287.167,38.5 287.5,38.8333 287.5,39.5C 287.167,39.1667 286.833,38.8333 286.5,38.5 Z"/></g>
<g><path style="opacity:0.994" fill="#dd9f57" d="M 444.5,41.5 C 441.913,40.1836 438.913,39.517 435.5,39.5C 432.087,39.517 429.087,40.1836 426.5,41.5C 425.596,40.791 425.263,39.791 425.5,38.5C 432.167,38.5 438.833,38.5 445.5,38.5C 445.737,39.791 445.404,40.791 444.5,41.5 Z"/></g>
<g><path style="opacity:0.89" fill="#d37d20" d="M 289.5,63.5 C 289.167,63.5 288.833,63.5 288.5,63.5C 288.046,61.7411 288.046,59.7411 288.5,57.5C 288.5,56.5 288.5,55.5 288.5,54.5C 288.249,49.4932 287.916,44.4932 287.5,39.5C 288.708,38.7659 290.041,38.4326 291.5,38.5C 291.216,41.7766 291.549,44.9433 292.5,48C 296.486,48.4988 300.486,48.6655 304.5,48.5C 304.5,45.1667 304.5,41.8333 304.5,38.5C 305.5,38.5 306.5,38.5 307.5,38.5C 307.201,45.8907 307.535,53.224 308.5,60.5C 307.68,62.1112 306.346,62.7778 304.5,62.5C 303.461,58.8729 303.461,55.2062 304.5,51.5C 300.167,51.5 295.833,51.5 291.5,51.5C 292.089,55.9707 291.423,59.9707 289.5,63.5 Z"/></g>
<g><path style="opacity:0.978" fill="#d6862f" d="M 322.5,38.5 C 323.833,38.5 325.167,38.5 326.5,38.5C 328.761,46.2817 331.428,53.9484 334.5,61.5C 333.349,62.731 332.183,62.731 331,61.5C 330.163,59.6494 329.329,57.8161 328.5,56C 322.459,53.9022 318.459,55.7356 316.5,61.5C 315.635,62.5827 314.635,62.7494 313.5,62C 316.605,54.1828 319.605,46.3495 322.5,38.5 Z M 323.5,43.5 C 325.105,46.1198 326.438,48.9531 327.5,52C 325.19,52.4966 322.857,52.6633 320.5,52.5C 321.213,49.4061 322.213,46.4061 323.5,43.5 Z"/></g>
<g><path style="opacity:0.947" fill="#de9f57" d="M 354.5,39.5 C 350.167,39.5 345.833,39.5 341.5,39.5C 341.5,47.1667 341.5,54.8333 341.5,62.5C 340.508,54.6841 340.174,46.6841 340.5,38.5C 345.363,38.1805 350.03,38.5139 354.5,39.5 Z"/></g>
<g><path style="opacity:0.978" fill="#d78833" d="M 354.5,39.5 C 360.517,43.0951 360.85,47.2618 355.5,52C 351.848,52.4986 348.182,52.6653 344.5,52.5C 344.5,55.8333 344.5,59.1667 344.5,62.5C 343.5,62.5 342.5,62.5 341.5,62.5C 341.5,54.8333 341.5,47.1667 341.5,39.5C 345.833,39.5 350.167,39.5 354.5,39.5 Z M 344.5,41.5 C 347.518,41.3354 350.518,41.502 353.5,42C 356.167,44.3333 356.167,46.6667 353.5,49C 350.518,49.498 347.518,49.6646 344.5,49.5C 344.5,46.8333 344.5,44.1667 344.5,41.5 Z"/></g>
<g><path style="opacity:0.954" fill="#e1aa68" d="M 378.5,39.5 C 374.5,39.5 370.5,39.5 366.5,39.5C 366.5,47.1667 366.5,54.8333 366.5,62.5C 365.508,54.6841 365.174,46.6841 365.5,38.5C 370.032,38.1818 374.366,38.5151 378.5,39.5 Z"/></g>
<g><path style="opacity:1" fill="#d78731" d="M 378.5,39.5 C 380.38,39.2291 381.713,39.8958 382.5,41.5C 382.833,42.1667 383.167,42.8333 383.5,43.5C 384.125,46.9705 383.125,49.8038 380.5,52C 376.848,52.4986 373.182,52.6653 369.5,52.5C 369.665,55.8499 369.498,59.1832 369,62.5C 368.023,63.7736 367.189,63.7736 366.5,62.5C 366.5,54.8333 366.5,47.1667 366.5,39.5C 370.5,39.5 374.5,39.5 378.5,39.5 Z M 369.5,41.5 C 372.518,41.3354 375.518,41.502 378.5,42C 381.167,44.3333 381.167,46.6667 378.5,49C 375.518,49.498 372.518,49.6646 369.5,49.5C 369.5,46.8333 369.5,44.1667 369.5,41.5 Z"/></g>
<g><path style="opacity:1" fill="#d88a36" d="M 388.5,38.5 C 390.144,38.2865 391.644,38.6198 393,39.5C 395,42.8333 397,46.1667 399,49.5C 401.377,45.912 403.877,42.412 406.5,39C 407.635,38.2506 408.635,38.4173 409.5,39.5C 406.75,43.3318 404.25,47.3318 402,51.5C 401.501,55.1516 401.335,58.8183 401.5,62.5C 400.167,62.5 398.833,62.5 397.5,62.5C 397.665,58.8183 397.499,55.1516 397,51.5C 394.146,47.1098 391.313,42.7765 388.5,38.5 Z"/></g>
<g><path style="opacity:0.999" fill="#d98b39" d="M 444.5,41.5 C 442.477,41.7153 440.144,41.7153 437.5,41.5C 437.5,47.5 437.5,53.5 437.5,59.5C 437.5,60.5 437.5,61.5 437.5,62.5C 436.167,62.5 434.833,62.5 433.5,62.5C 433.5,55.5 433.5,48.5 433.5,41.5C 431.167,41.5 428.833,41.5 426.5,41.5C 429.087,40.1836 432.087,39.517 435.5,39.5C 438.913,39.517 441.913,40.1836 444.5,41.5 Z"/></g>
<g><path style="opacity:0.137" fill="#fafff5" d="M 448.5,39.5 C 450.048,39.8212 450.715,40.8212 450.5,42.5C 449.448,42.6495 448.448,42.4828 447.5,42C 448.252,41.3292 448.586,40.4959 448.5,39.5 Z"/></g>
<g><path style="opacity:0.949" fill="#d5842b" d="M 470.5,59.5 C 470.5,60.1667 470.5,60.8333 470.5,61.5C 469.458,62.7911 468.292,62.7911 467,61.5C 466.782,58.5738 466.282,55.7405 465.5,53C 461.848,52.5014 458.182,52.3347 454.5,52.5C 454.5,55.8333 454.5,59.1667 454.5,62.5C 452.821,62.7148 451.821,62.0481 451.5,60.5C 451.5,53.1667 451.5,45.8333 451.5,38.5C 455.846,38.3343 460.179,38.501 464.5,39C 471.282,41.4613 472.282,45.4613 467.5,51C 469.336,53.4929 470.336,56.3262 470.5,59.5 Z M 454.5,41.5 C 458.182,41.3347 461.848,41.5014 465.5,42C 466.833,44.3333 466.833,46.6667 465.5,49C 461.848,49.4986 458.182,49.6653 454.5,49.5C 454.5,46.8333 454.5,44.1667 454.5,41.5 Z"/></g>
<g><path style="opacity:0.922" fill="#d6842d" d="M 476.5,61.5 C 476.5,60.8333 476.5,60.1667 476.5,59.5C 479.934,52.8759 482.6,45.8759 484.5,38.5C 485.978,38.238 487.311,38.5713 488.5,39.5C 491.572,47.0516 494.239,54.7183 496.5,62.5C 495.325,62.719 494.325,62.3857 493.5,61.5C 492.833,59.8333 492.167,58.1667 491.5,56.5C 488.216,55.343 484.882,55.1764 481.5,56C 480.76,57.7849 480.093,59.6183 479.5,61.5C 478.386,62.7759 477.386,62.7759 476.5,61.5 Z M 485.5,43.5 C 487.956,45.8177 489.289,48.8177 489.5,52.5C 487.5,52.5 485.5,52.5 483.5,52.5C 484.167,49.5 484.833,46.5 485.5,43.5 Z"/></g>
<g><path style="opacity:0.827" fill="#d68630" d="M 522.5,48.5 C 522.5,49.5 522.5,50.5 522.5,51.5C 522.472,55.7189 520.805,59.2189 517.5,62C 512.845,62.4992 508.179,62.6658 503.5,62.5C 503.5,54.5 503.5,46.5 503.5,38.5C 509.049,38.0871 514.382,38.9204 519.5,41C 521.202,43.2354 522.202,45.7354 522.5,48.5 Z M 506.5,41.5 C 517.104,40.2745 521.27,44.9412 519,55.5C 518.535,56.9308 517.701,58.0975 516.5,59C 513.183,59.4983 509.85,59.665 506.5,59.5C 506.5,53.5 506.5,47.5 506.5,41.5 Z"/></g>
<g><path style="opacity:0.912" fill="#d58228" d="M 530.5,38.5 C 536.167,38.5 541.833,38.5 547.5,38.5C 547.5,39.5 547.5,40.5 547.5,41.5C 542.833,41.5 538.167,41.5 533.5,41.5C 533.5,44.1667 533.5,46.8333 533.5,49.5C 550.833,50.1667 550.833,50.8333 533.5,51.5C 533.5,54.1667 533.5,56.8333 533.5,59.5C 538.167,59.5 542.833,59.5 547.5,59.5C 547.5,60.5 547.5,61.5 547.5,62.5C 541.833,62.5 536.167,62.5 530.5,62.5C 530.5,54.5 530.5,46.5 530.5,38.5 Z"/></g>
<g><path style="opacity:0.016" fill="#fafff5" d="M 277.5,41.5 C 276.833,42.1667 276.833,42.1667 277.5,41.5 Z"/></g>
<g><path style="opacity:0.341" fill="#f8f4e5" d="M 382.5,41.5 C 385.853,41.3453 386.186,42.0119 383.5,43.5C 383.167,42.8333 382.833,42.1667 382.5,41.5 Z"/></g>
<g><path style="opacity:0.004" fill="#fafff5" d="M 276.5,42.5 C 275.833,43.1667 275.833,43.1667 276.5,42.5 Z"/></g>
<g><path style="opacity:0.06" fill="#fafef5" d="M 288.5,54.5 C 288.5,55.5 288.5,56.5 288.5,57.5C 284.089,57.021 279.922,57.6876 276,59.5C 273.363,54.9705 273.03,50.3038 275,45.5C 275.333,48.1667 275.667,50.8333 276,53.5C 280.206,51.5509 284.373,51.8843 288.5,54.5 Z"/></g>
<g><path style="opacity:0.127" fill="#f2e0c3" d="M 522.5,48.5 C 526.458,49.4623 526.458,50.4623 522.5,51.5C 522.5,50.5 522.5,49.5 522.5,48.5 Z"/></g>
<g><path style="opacity:1" fill="#d78d39" d="M 206.5,48.5 C 213.207,51.1914 219.874,53.858 226.5,56.5C 227.5,56.8333 228.167,57.5 228.5,58.5C 230.217,64.2674 232.217,69.934 234.5,75.5C 232.833,75.5 231.167,75.5 229.5,75.5C 227.603,72.053 225.437,68.7196 223,65.5C 217.297,59.9647 211.797,54.2981 206.5,48.5 Z"/></g>
<g><path style="opacity:0.997" fill="#e3b377" d="M 228.5,58.5 C 239.527,63.6732 249.36,70.6732 258,79.5C 261.02,82.6232 262.02,86.2898 261,90.5C 255.354,103.429 251.354,116.762 249,130.5C 249.171,122.961 250.005,115.461 251.5,108C 251.584,103.668 249.918,100.168 246.5,97.5C 247.825,92.2362 248.325,86.9029 248,81.5C 244.948,76.5282 240.448,74.5282 234.5,75.5C 232.217,69.934 230.217,64.2674 228.5,58.5 Z"/></g>
<g><path style="opacity:0.057" fill="#fafdf3" d="M 437.5,59.5 C 439.475,59.1639 441.475,59.6639 443.5,61C 441.488,65.1737 438.155,67.0071 433.5,66.5C 433.172,71.4887 431.005,75.4887 427,78.5C 426.833,78.1667 426.667,77.8333 426.5,77.5C 428.401,72.2758 430.734,67.2758 433.5,62.5C 434.833,62.5 436.167,62.5 437.5,62.5C 437.5,61.5 437.5,60.5 437.5,59.5 Z M 438.5,62.5 C 439.077,61.2267 439.743,61.2267 440.5,62.5C 440.03,63.463 439.363,63.463 438.5,62.5 Z"/></g>
<g><path style="opacity:0.104" fill="#fafff5" d="M 470.5,59.5 C 472.5,59.5 474.5,59.5 476.5,59.5C 476.5,60.1667 476.5,60.8333 476.5,61.5C 475.596,62.209 475.263,63.209 475.5,64.5C 473.041,64.69 471.374,63.69 470.5,61.5C 470.5,60.8333 470.5,60.1667 470.5,59.5 Z"/></g>
<g><path style="opacity:0.023" fill="#fafcf1" d="M 451.5,60.5 C 451.821,62.0481 452.821,62.7148 454.5,62.5C 453.737,63.2679 452.737,63.7679 451.5,64C 455.152,66.0823 459.152,67.0823 463.5,67C 457.825,67.4641 457.492,68.1307 462.5,69C 453.999,72.2485 448.665,69.4152 446.5,60.5C 447.5,60.5 448.5,60.5 449.5,60.5C 449.343,61.8734 449.51,63.2068 450,64.5C 450.21,62.9419 450.71,61.6085 451.5,60.5 Z"/></g>
<g><path style="opacity:0.026" fill="#fafef5" d="M 288.5,63.5 C 288.833,63.5 289.167,63.5 289.5,63.5C 289.665,66.8499 289.498,70.1832 289,73.5C 287.265,70.2103 287.099,66.877 288.5,63.5 Z"/></g>
<g><path style="opacity:0.088" fill="#fafef5" d="M 343.5,66.5 C 344.622,68.2884 344.789,70.2884 344,72.5C 343.505,70.5273 343.338,68.5273 343.5,66.5 Z"/></g>
<g><path style="opacity:0.019" fill="#fafff5" d="M 464.5,67.5 C 465.919,66.5489 467.585,66.2155 469.5,66.5C 469.5,67.5 469.5,68.5 469.5,69.5C 466.402,69.5875 466.068,69.0875 468.5,68C 467.207,67.51 465.873,67.3433 464.5,67.5 Z"/></g>
<g><path style="opacity:0.117" fill="#fafff5" d="M 472.5,76.5 C 472.5,77.1667 472.167,77.5 471.5,77.5C 470.833,77.5 470.167,77.5 469.5,77.5C 469.694,73.9952 470.694,73.6618 472.5,76.5 Z"/></g>
<g><path style="opacity:0.004" fill="#fafff5" d="M 472.5,75.5 C 473.833,76.1667 473.833,76.1667 472.5,75.5 Z"/></g>
<g><path style="opacity:0.981" fill="#9da471" d="M 215.5,78.5 C 206.651,78.1736 197.984,78.507 189.5,79.5C 188.957,79.44 188.624,79.1067 188.5,78.5C 193.167,78.1667 197.833,77.8333 202.5,77.5C 207.587,77.4706 211.92,77.8039 215.5,78.5 Z"/></g>
<g><path style="opacity:0.999" fill="#687025" d="M 140.5,78.5 C 149.009,77.1786 157.675,77.1786 166.5,78.5C 165.18,83.7403 164.513,89.0736 164.5,94.5C 166.167,94.5 167.833,94.5 169.5,94.5C 168.92,98.81 168.586,103.143 168.5,107.5C 166.208,107.244 164.041,107.577 162,108.5C 161.172,112.466 160.672,116.466 160.5,120.5C 162.5,120.167 164.5,119.833 166.5,119.5C 165.9,124.198 165.067,128.864 164,133.5C 162.088,134.692 160.088,135.692 158,136.5C 156.427,147.134 155.094,157.8 154,168.5C 153.3,172.066 151.467,174.9 148.5,177C 139.543,178.715 130.543,178.882 121.5,177.5C 125,173.167 128.5,168.833 132,164.5C 133.162,157.531 133.996,150.531 134.5,143.5C 131.794,143.575 129.127,143.908 126.5,144.5C 126.675,139.766 127.342,135.099 128.5,130.5C 131.332,129.42 134.165,128.42 137,127.5C 137.528,120.767 138.361,114.101 139.5,107.5C 136.833,107.5 134.167,107.5 131.5,107.5C 131.372,103.119 131.705,98.7853 132.5,94.5C 135.5,94.5 138.5,94.5 141.5,94.5C 142.072,90.4954 142.739,86.4954 143.5,82.5C 143.246,80.5828 142.246,79.2495 140.5,78.5 Z"/></g>
<g><path style="opacity:0.999" fill="#676f24" d="M 215.5,78.5 C 214.772,80.7346 213.439,82.5679 211.5,84C 220.827,84.4998 230.161,84.6665 239.5,84.5C 240.409,93.0911 237.742,100.258 231.5,106C 235.152,106.499 238.818,106.665 242.5,106.5C 241.312,116.481 240.312,126.481 239.5,136.5C 240.833,136.5 242.167,136.5 243.5,136.5C 243.248,140.767 242.581,144.934 241.5,149C 232.833,149.333 224.167,149.667 215.5,150C 222.621,159.077 229.621,168.243 236.5,177.5C 229.189,178.665 221.856,178.831 214.5,178C 209.667,171.167 204.833,164.333 200,157.5C 194.366,164.136 188.366,170.469 182,176.5C 181.517,177.448 181.351,178.448 181.5,179.5C 173.126,179.354 164.793,178.688 156.5,177.5C 165.319,168.181 174.319,159.014 183.5,150C 175.841,149.5 168.174,149.334 160.5,149.5C 160.888,145.448 161.555,141.448 162.5,137.5C 164.045,136.548 165.712,136.215 167.5,136.5C 168.554,126.458 169.887,116.458 171.5,106.5C 183.505,106.667 195.505,106.5 207.5,106C 209.833,103 212.167,100 214.5,97C 209.833,96.3333 205.167,96.3333 200.5,97C 198.833,98.6667 197.167,100.333 195.5,102C 187.812,102.831 180.145,102.665 172.5,101.5C 178.166,94.3042 184.166,87.4708 190.5,81C 189.944,80.6174 189.611,80.1174 189.5,79.5C 197.984,78.507 206.651,78.1736 215.5,78.5 Z M 215.5,116.5 C 218.119,116.232 220.619,116.565 223,117.5C 223.022,123.853 222.522,130.187 221.5,136.5C 218.5,136.5 215.5,136.5 212.5,136.5C 213.128,129.772 214.128,123.106 215.5,116.5 Z M 187.5,117.5 C 190.698,116.964 193.365,117.631 195.5,119.5C 195.207,125.217 194.54,130.884 193.5,136.5C 190.833,136.5 188.167,136.5 185.5,136.5C 185.709,130.072 186.376,123.739 187.5,117.5 Z"/></g>
<g><path style="opacity:1" fill="#687025" d="M 469.5,77.5 C 470.167,77.5 470.833,77.5 471.5,77.5C 470.699,81.2347 469.699,84.9014 468.5,88.5C 479.833,88.5 491.167,88.5 502.5,88.5C 498.718,116.143 494.884,143.81 491,171.5C 489.878,173.624 488.378,175.457 486.5,177C 477.936,178.607 469.27,178.94 460.5,178C 464.667,173.833 468.833,169.667 473,165.5C 476.033,144.16 478.866,122.827 481.5,101.5C 475.132,101.17 468.798,101.504 462.5,102.5C 461.484,105.855 460.484,109.188 459.5,112.5C 451.981,112.825 444.648,112.492 437.5,111.5C 438.401,110.71 439.068,109.71 439.5,108.5C 442.398,99.9723 445.398,91.4723 448.5,83C 448.357,80.849 447.357,79.1824 445.5,78C 453.493,77.5003 461.493,77.3336 469.5,77.5 Z"/></g>
<g><path style="opacity:0.993" fill="#687025" d="M 290.5,80.5 C 317.328,81.4979 344.328,81.8312 371.5,81.5C 370.834,85.4701 370.168,89.4701 369.5,93.5C 343.84,94.3332 318.173,94.8332 292.5,95C 289.664,102.676 287.331,110.509 285.5,118.5C 292.167,118.5 298.833,118.5 305.5,118.5C 306.167,112.833 306.833,107.167 307.5,101.5C 316.167,101.5 324.833,101.5 333.5,101.5C 333.5,102.833 333.5,104.167 333.5,105.5C 332.705,109.785 332.372,114.119 332.5,118.5C 343.988,119.495 355.655,119.828 367.5,119.5C 367.5,120.833 367.5,122.167 367.5,123.5C 367.425,126.206 367.092,128.873 366.5,131.5C 353.788,130.854 341.455,131.52 329.5,133.5C 328.049,145.491 326.549,157.491 325,169.5C 323.895,172.937 321.728,175.437 318.5,177C 308.167,177.667 297.833,177.667 287.5,177C 291.333,172.5 295.167,168 299,163.5C 300.586,154.565 301.752,145.565 302.5,136.5C 303.451,135.081 303.784,133.415 303.5,131.5C 288.5,131.5 273.5,131.5 258.5,131.5C 258.062,131.565 257.728,131.399 257.5,131C 260.407,115.502 265.074,100.502 271.5,86C 270.711,84.3745 269.711,82.8745 268.5,81.5C 271.223,80.3885 274.056,79.7219 277,79.5C 281.47,80.2637 285.97,80.597 290.5,80.5 Z"/></g>
<g><path style="opacity:0.88" fill="#8a9155" d="M 371.5,81.5 C 344.328,81.8312 317.328,81.4979 290.5,80.5C 312.906,80.3808 335.239,80.0475 357.5,79.5C 362.299,80.1175 366.966,80.7841 371.5,81.5 Z"/></g>
<g><path style="opacity:0.999" fill="#686f25" d="M 436.5,104.5 C 435.532,106.607 435.198,108.941 435.5,111.5C 433.666,123.339 432,135.339 430.5,147.5C 429.566,148.568 429.232,149.901 429.5,151.5C 429.5,152.5 429.5,153.5 429.5,154.5C 426.482,154.665 423.482,154.498 420.5,154C 419.206,151.913 418.039,149.746 417,147.5C 417.165,140.5 417.665,133.5 418.5,126.5C 420.008,117.325 421.341,107.992 422.5,98.5C 422.5,97.8333 422.5,97.1667 422.5,96.5C 423.404,95.791 423.737,94.791 423.5,93.5C 416.5,93.5 409.5,93.5 402.5,93.5C 400.966,108.241 398.966,122.907 396.5,137.5C 396.5,137.833 396.5,138.167 396.5,138.5C 395.806,141.421 394.973,144.421 394,147.5C 391.81,149.388 389.977,151.555 388.5,154C 385.446,154.821 382.446,154.655 379.5,153.5C 382.441,130.791 385.774,108.125 389.5,85.5C 388.954,83.8653 388.62,82.1986 388.5,80.5C 405.5,80.5 422.5,80.5 439.5,80.5C 438.873,88.5518 437.873,96.5518 436.5,104.5 Z M 422.5,96.5 C 420.362,93.9373 418.695,94.2706 417.5,97.5C 412.706,96.9031 408.373,97.5698 404.5,99.5C 402.637,111.793 400.97,124.127 399.5,136.5C 398.391,136.557 397.391,136.89 396.5,137.5C 398.966,122.907 400.966,108.241 402.5,93.5C 409.5,93.5 416.5,93.5 423.5,93.5C 423.737,94.791 423.404,95.791 422.5,96.5 Z M 422.5,98.5 C 421.341,107.992 420.008,117.325 418.5,126.5C 418.5,125.167 417.833,124.5 416.5,124.5C 417.127,116.448 418.127,108.448 419.5,100.5C 420.5,99.8333 421.5,99.1667 422.5,98.5 Z"/></g>
<g><path style="opacity:0.074" fill="#f9fdf4" d="M 422.5,96.5 C 422.5,97.1667 422.5,97.8333 422.5,98.5C 421.5,99.1667 420.5,99.8333 419.5,100.5C 419.5,99.8333 419.5,99.1667 419.5,98.5C 420.644,97.1507 420.644,96.8174 419.5,97.5C 418.833,97.5 418.167,97.5 417.5,97.5C 418.695,94.2706 420.362,93.9373 422.5,96.5 Z"/></g>
<g><path style="opacity:0.959" fill="#a0a774" d="M 417.5,97.5 C 418.167,97.5 418.833,97.5 419.5,97.5C 419.5,97.8333 419.5,98.1667 419.5,98.5C 414.405,98.2213 409.405,98.5546 404.5,99.5C 408.373,97.5698 412.706,96.9031 417.5,97.5 Z"/></g>
<g><path style="opacity:0.996" fill="#687026" d="M 419.5,98.5 C 419.5,99.1667 419.5,99.8333 419.5,100.5C 418.127,108.448 417.127,116.448 416.5,124.5C 416.5,124.833 416.5,125.167 416.5,125.5C 414.808,132.985 413.475,140.652 412.5,148.5C 417.755,158.01 422.755,167.676 427.5,177.5C 421.193,178.664 414.859,178.831 408.5,178C 407.005,174.183 405.505,170.35 404,166.5C 401.477,170.233 398.977,173.899 396.5,177.5C 389.978,177.823 383.645,177.49 377.5,176.5C 383.78,167.047 390.28,157.713 397,148.5C 398.128,146.655 398.628,144.655 398.5,142.5C 399.461,140.735 399.795,138.735 399.5,136.5C 400.97,124.127 402.637,111.793 404.5,99.5C 409.405,98.5546 414.405,98.2213 419.5,98.5 Z"/></g>
<g><path style="opacity:0.082" fill="#fafff5" d="M 515.5,99.5 C 514.833,98.1667 514.833,98.1667 515.5,99.5 Z"/></g>
<g><path style="opacity:0.062" fill="#fafff5" d="M 515.5,99.5 C 517.027,99.427 518.027,100.094 518.5,101.5C 516.973,101.573 515.973,100.906 515.5,99.5 Z"/></g>
<g><path style="opacity:1" fill="#8f955c" d="M 307.5,101.5 C 316.318,100.507 325.318,100.173 334.5,100.5C 334.784,102.415 334.451,104.081 333.5,105.5C 333.5,104.167 333.5,102.833 333.5,101.5C 324.833,101.5 316.167,101.5 307.5,101.5 Z"/></g>
<g><path style="opacity:0.022" fill="#fafff5" d="M 518.5,101.5 C 519.239,101.369 519.906,101.536 520.5,102C 519.563,102.692 518.897,102.525 518.5,101.5 Z"/></g>
<g><path style="opacity:0.28" fill="#e1e5d0" d="M 436.5,104.5 C 436.5,105.833 436.5,107.167 436.5,108.5C 437.5,108.5 438.5,108.5 439.5,108.5C 439.068,109.71 438.401,110.71 437.5,111.5C 436.833,111.5 436.167,111.5 435.5,111.5C 435.198,108.941 435.532,106.607 436.5,104.5 Z"/></g>
<g><path style="opacity:0.329" fill="#a8ae80" d="M 187.5,117.5 C 190.287,116.523 193.287,116.19 196.5,116.5C 196.737,117.791 196.404,118.791 195.5,119.5C 193.365,117.631 190.698,116.964 187.5,117.5 Z"/></g>
<g><path style="opacity:1" fill="#697127" d="M 432.5,150.5 C 433.338,150.158 433.672,149.492 433.5,148.5C 436.764,137.791 440.764,127.291 445.5,117C 450.533,116.171 455.533,116.338 460.5,117.5C 457.811,126.121 454.811,134.621 451.5,143C 453.899,143.711 456.232,143.544 458.5,142.5C 460.184,137.312 460.851,131.978 460.5,126.5C 464.833,126.5 469.167,126.5 473.5,126.5C 473.439,138.176 473.106,149.843 472.5,161.5C 468.154,161.666 463.821,161.499 459.5,161C 458.594,159.301 458.261,157.467 458.5,155.5C 449.827,156.835 441.16,158.168 432.5,159.5C 432.5,156.5 432.5,153.5 432.5,150.5 Z"/></g>
<g><path style="opacity:1" fill="#8c9359" d="M 332.5,118.5 C 344.5,118.5 356.5,118.5 368.5,118.5C 368.784,120.415 368.451,122.081 367.5,123.5C 367.5,122.167 367.5,120.833 367.5,119.5C 355.655,119.828 343.988,119.495 332.5,118.5 Z"/></g>
<g><path style="opacity:0.886" fill="#e2b072" d="M 4.5,116.5 C 4.83333,116.5 5.16667,116.5 5.5,116.5C 6.76263,125.228 9.09596,133.561 12.5,141.5C 12.5,142.5 12.5,143.5 12.5,144.5C 9.91221,151.508 9.07888,158.841 10,166.5C 12.7489,177.915 16.5822,188.915 21.5,199.5C 15.6161,193.741 11.7827,186.741 10,178.5C 7.17824,157.925 5.3449,137.258 4.5,116.5 Z"/></g>
<g><path style="opacity:0.102" fill="#fafff5" d="M 416.5,125.5 C 416.5,125.167 416.5,124.833 416.5,124.5C 417.833,124.5 418.5,125.167 418.5,126.5C 417.833,126.167 417.167,125.833 416.5,125.5 Z"/></g>
<g><path style="opacity:0.988" fill="#b1b78d" d="M 258.5,131.5 C 273.5,131.5 288.5,131.5 303.5,131.5C 303.784,133.415 303.451,135.081 302.5,136.5C 302.5,135.167 302.5,133.833 302.5,132.5C 287.657,132.829 272.99,132.496 258.5,131.5 Z"/></g>
<g><path style="opacity:0.934" fill="#afb58b" d="M 366.5,131.5 C 354.265,132.185 341.932,132.852 329.5,133.5C 341.455,131.52 353.788,130.854 366.5,131.5 Z"/></g>
<g><path style="opacity:0.218" fill="#eaefdf" d="M 399.5,136.5 C 399.795,138.735 399.461,140.735 398.5,142.5C 397.194,141.533 396.527,140.199 396.5,138.5C 396.5,138.167 396.5,137.833 396.5,137.5C 397.391,136.89 398.391,136.557 399.5,136.5 Z"/></g>
<g><path style="opacity:1" fill="#676f24" d="M 367.5,174.5 C 359.14,174.831 350.807,174.498 342.5,173.5C 339.579,161.895 336.912,150.228 334.5,138.5C 342.5,138.5 350.5,138.5 358.5,138.5C 360.346,149.219 362.512,159.886 365,170.5C 365.48,172.133 366.313,173.466 367.5,174.5 Z"/></g>
<g><path style="opacity:1" fill="#d9903f" d="M 251.5,138.5 C 253.936,138.749 255.936,139.749 257.5,141.5C 252.238,151.456 247.071,161.456 242,171.5C 238.833,167.167 235.667,162.833 232.5,158.5C 236.796,157.672 241.129,157.172 245.5,157C 246.667,155.833 247.833,154.667 249,153.5C 250.416,148.588 251.249,143.588 251.5,138.5 Z"/></g>
<g><path style="opacity:1" fill="#687026" d="M 267.5,138.5 C 275.528,138.169 283.528,138.502 291.5,139.5C 285.833,150.833 280.167,162.167 274.5,173.5C 266.5,174.833 258.5,174.833 250.5,173.5C 256.45,161.934 262.117,150.267 267.5,138.5 Z"/></g>
<g><path style="opacity:0.999" fill="#d68c37" d="M 12.5,144.5 C 17.0934,155.02 22.2601,165.354 28,175.5C 40.7391,196.406 57.5725,213.073 78.5,225.5C 57.8055,223.059 39.4722,215.392 23.5,202.5C 22.8333,201.5 22.1667,200.5 21.5,199.5C 16.5822,188.915 12.7489,177.915 10,166.5C 9.07888,158.841 9.91221,151.508 12.5,144.5 Z"/></g>
<g><path style="opacity:1" fill="#cdd2b5" d="M 430.5,147.5 C 430.804,149.796 431.804,150.129 433.5,148.5C 433.672,149.492 433.338,150.158 432.5,150.5C 431.391,150.557 430.391,150.89 429.5,151.5C 429.232,149.901 429.566,148.568 430.5,147.5 Z"/></g>
<g><path style="opacity:0.984" fill="#f9fef5" d="M 367.5,174.5 C 368.833,175.167 368.833,175.167 367.5,174.5 Z"/></g>
<g><path style="opacity:0.937" fill="#9fa674" d="M 377.5,176.5 C 383.645,177.49 389.978,177.823 396.5,177.5C 389.989,178.818 383.322,178.818 376.5,177.5C 376.624,176.893 376.957,176.56 377.5,176.5 Z"/></g>
<g><path style="opacity:0.999" fill="#d78d39" d="M 213.5,186.5 C 222.5,186.5 231.5,186.5 240.5,186.5C 218.324,209.017 193.324,227.684 165.5,242.5C 164.833,242.5 164.167,242.5 163.5,242.5C 138.318,243.953 113.985,240.12 90.5,231C 87.8085,229.395 85.1418,227.895 82.5,226.5C 113.721,231.455 144.721,230.288 175.5,223C 197.006,217.085 214.673,205.418 228.5,188C 223.316,187.826 218.316,187.326 213.5,186.5 Z"/></g>
<g><path style="opacity:0.032" fill="#fafff6" d="M 320.5,195.5 C 322.085,196.002 322.585,197.002 322,198.5C 320.961,197.756 320.461,196.756 320.5,195.5 Z"/></g>
<g><path style="opacity:0.996" fill="#dda35f" d="M 165.5,242.5 C 193.324,227.684 218.324,209.017 240.5,186.5C 242.479,185.188 244.145,183.521 245.5,181.5C 249.094,182.426 252.76,182.759 256.5,182.5C 252.202,200.64 242.202,214.807 226.5,225C 207.612,235.311 187.279,241.144 165.5,242.5 Z"/></g>
<g><path style="opacity:0.983" fill="#e3b175" d="M 23.5,202.5 C 39.4722,215.392 57.8055,223.059 78.5,225.5C 79.7079,226.234 81.0413,226.567 82.5,226.5C 85.1418,227.895 87.8085,229.395 90.5,231C 113.985,240.12 138.318,243.953 163.5,242.5C 145.083,252.939 125.083,258.106 103.5,258C 102.944,258.383 102.611,258.883 102.5,259.5C 102.167,259.5 101.833,259.5 101.5,259.5C 66.0565,253.747 40.0565,234.747 23.5,202.5 Z"/></g>
</svg>
